#!OML:ASF F:\VICON\USERDATA\INSTALL\rory3\rory3.ASF
:FULLY-SPECIFIED
:DEGREES
804
root -0.130661 16.9087 17.4235 -160.128 -27.2547 -174.998
lowerback -12.9472 2.29193 4.00334
upperback -7.44305 1.69379 2.83779
thorax -0.515783 0.399495 0.916253
lowerneck -13.7651 -0.477672 -1.70052
upperneck 38.0067 -2.95857 -1.63407
head 15.7378 -2.8183 -1.21325
rclavicle 1.33186e-014 5.56597e-015
rhumerus -77.4396 42.3012 -122.624
rradius 52.7603
rwrist -39.9538
rhand 22.0457 -3.04499
rfingers 7.12502
rthumb 46.4358 -25.9558
lclavicle 1.33186e-014 5.56597e-015
lhumerus -60.628 -17.062 100.995
lradius 41.2096
lwrist 11.6169
lhand 24.6623 21.3916
lfingers 7.12502
lthumb 48.8509 43.1974
rfemur -31.594 0.996673 36.6612
rtibia 28.363
rfoot -35.0242 -28.9539
rtoes 35.1452
lfemur -27.5641 32.7489 -24.2854
ltibia 57.6693
lfoot 43.6057 20.8591
ltoes 1.91921
805
root -0.12619 16.9102 17.4248 -160.188 -27.3286 -174.917
lowerback -12.9804 2.31307 4.1101
upperback -7.40352 1.71101 2.82034
thorax -0.452663 0.407667 0.84156
lowerneck -13.932 -0.430966 -1.56295
upperneck 38.2034 -2.90686 -1.75108
head 15.8732 -2.79885 -1.29214
rclavicle 2.60905e-014 -1.03368e-014
rhumerus -77.4801 42.3493 -122.753
rradius 52.8108
rwrist -40.1644
rhand 21.8888 -3.19271
rfingers 7.12502
rthumb 46.2904 -26.1653
lclavicle 2.60905e-014 -1.03368e-014
lhumerus -60.5903 -17.2009 101.005
lradius 41.1789
lwrist 11.6784
lhand 24.86 21.3282
lfingers 7.12502
lthumb 49.0326 43.0444
rfemur -31.581 1.00897 36.765
rtibia 28.3811
rfoot -35.0374 -29.0918
rtoes 34.9652
lfemur -27.6345 32.9061 -24.228
ltibia 57.7186
lfoot 43.9892 20.0046
ltoes -0.838819
806
root -0.122365 16.9108 17.4294 -160.191 -27.3685 -174.973
lowerback -12.9679 2.31189 4.12476
upperback -7.37543 1.71659 2.75581
thorax -0.427235 0.413008 0.766574
lowerneck -13.9105 -0.415239 -1.5153
upperneck 38.225 -2.90751 -1.74221
head 15.8783 -2.79238 -1.29746
rclavicle -8.48562e-015 7.95139e-015
rhumerus -77.5504 42.4036 -122.947
rradius 52.8053
rwrist -40.2362
rhand 21.7774 -3.09153
rfingers 7.12502
rthumb 46.1871 -26.1078
lclavicle -8.48562e-015 7.95139e-015
lhumerus -60.4896 -17.3566 101.021
lradius 41.1042
lwrist 11.8031
lhand 24.7967 21.2151
lfingers 7.12502
lthumb 48.9744 42.9601
rfemur -31.5862 0.991225 36.7204
rtibia 28.3637
rfoot -35.0958 -29.1236
rtoes 34.8273
lfemur -27.6467 32.937 -24.2958
ltibia 57.7245
lfoot 42.864 21.8208
ltoes 3.77253
807
root -0.119577 16.9099 17.435 -160.289 -27.4137 -174.761
lowerback -12.9476 2.36115 4.36439
upperback -7.44294 1.74827 2.74817
thorax -0.501813 0.414571 0.628044
lowerneck -13.6036 -0.383339 -1.38451
upperneck 38.2048 -2.91618 -1.79434
head 15.7897 -2.79588 -1.33858
rclavicle -4.32854e-014 -2.06736e-014
rhumerus -77.7304 42.3137 -123.213
rradius 52.8018
rwrist -40.282
rhand 21.4994 -2.90004
rfingers 7.12502
rthumb 45.9292 -26.024
lclavicle -4.32854e-014 -2.06736e-014
lhumerus -60.6177 -17.4857 101.093
lradius 41.0465
lwrist 11.9855
lhand 24.6363 21.1087
lfingers 7.12502
lthumb 48.827 42.9262
rfemur -31.5903 1.04441 36.9084
rtibia 28.3303
rfoot -35.053 -29.1059
rtoes 34.8234
lfemur -27.6925 33.0371 -24.1322
ltibia 57.6977
lfoot 42.0372 23.1393
ltoes 7.98676
808
root -0.117108 16.9111 17.4388 -160.272 -27.4037 -174.707
lowerback -12.9953 2.4439 4.45334
upperback -7.56401 1.8355 2.65658
thorax -0.596461 0.444065 0.494544
lowerneck -13.0699 -0.377417 -1.13441
upperneck 38.1379 -3.01231 -1.86141
head 15.6199 -2.82653 -1.41513
rclavicle 4.33661e-014 -1.74931e-014
rhumerus -77.9012 42.0863 -123.505
rradius 52.7708
rwrist -40.3865
rhand 21.2242 -2.84996
rfingers 7.12502
rthumb 45.6737 -26.0791
lclavicle 4.33661e-014 -1.74931e-014
lhumerus -60.9028 -17.726 101.181
lradius 40.9746
lwrist 12.1083
lhand 24.6191 21.0466
lfingers 7.12502
lthumb 48.8112 42.8718
rfemur -31.5947 1.17161 36.9263
rtibia 28.2761
rfoot -35.1858 -28.9973
rtoes 35.1547
lfemur -27.7624 33.124 -24.1567
ltibia 57.6158
lfoot 41.7619 23.804
ltoes 9.15554
